<?xml version="1.0" encoding="UTF-8"?>
<svg id="Layer_1" data-name="Layer 1" xmlns="http://www.w3.org/2000/svg" viewBox="0 0 72 72">
  <defs>
    <style>
      .cls-1 {
        fill: #6979bb;
      }
    </style>
  </defs>
  <path class="cls-1" d="M65.05,33.61c1.88-5.85,7.47-12.61,2.59-18.36-3.85-4.54-8.45-9.17-14.83-9.21H11.95s1.73,15.84,1.73,15.84c.42.8,3.02,2.62,2.94,3.37L2.41,59.83c2.04,2.06,4.03,4.31,6.26,6.13h29.86c12.33-.78,16.95-7.2,20.66-18.03.95-2.77,1.11-5.13.27-7.97-.16-.55-1.18-2.52-1.04-2.74l6.63-3.62ZM57.49,26.14c-3.18,1.98-6.52,3.74-9.85,5.46-.21.29,1.67,1.54,1.98,1.87,4.07,4.39.64,11.13-1.57,15.72-3.15,6.54-9.91,8.21-16.65,8.52l-24.15-.11,13.74-33.22c3.35-1.85,7.11-3.02,10.62-4.6.21-.1.65-.14.63-.4h-14.93c-.47-.14-1-8.64-1.22-9.77h34.85c2.53.24,5.1.34,7.35,1.66,6.05,3.56.78,10.22-.79,14.86Z"/>
  <path class="cls-1" d="M35.96,37.92c-.38-.61-3.76-4.45-4.19-4.45l-5.92,14.46h5.92c1.41,0,3.47-2.41,4.14-3.57,1.33-2.3,1.5-4.13.06-6.45Z"/>
  <polygon class="cls-1" points="37.49 19.38 33.27 30.09 49.33 19.38 37.49 19.38"/>
</svg>