<?xml version="1.0" encoding="UTF-8"?>
<svg id="Layer_1" data-name="Layer 1" xmlns="http://www.w3.org/2000/svg" viewBox="0 0 72 72">
  <defs>
    <style>
      .cls-1 {
        fill: #6979bb;
      }
    </style>
  </defs>
  <path class="cls-1" d="M0,0v72h72V0H0ZM5.25,18.87c10.8,0,19.74-3.18,29.32-6.51,9.66-3.33,19.82-6.99,32.18-6.99v8.54c-10.81,0-19.75,3.18-29.4,6.51-9.54,3.33-19.75,6.99-32.1,6.99v-8.54ZM66.75,53.13c-10.81,0-19.75,3.18-29.4,6.51-9.57,3.34-19.75,6.99-32.1,6.99v-8.53c10.8,0,19.74-3.18,29.32-6.52,9.66-3.33,19.82-6.98,32.18-6.98v8.53ZM66.75,40.31H5.25v-8.62h61.5v8.62Z"/>
</svg>